<svg width="169" height="133" viewBox="0 0 169 133" fill="none" xmlns="http://www.w3.org/2000/svg">
<g opacity="0.2">
<path d="M62.7148 46.5621L48.3825 66.1588L0 0H28.6603L62.7148 46.5621Z" fill="#C4C4C4"/>
<path d="M125.421 0L77.0384 66.1588L62.7148 46.5621L96.765 0H125.421Z" fill="#C4C4C4"/>
</g>
<g opacity="0.2">
<path d="M125.421 132.308H96.765L62.7148 85.7507L28.6603 132.308H0L48.3825 66.1588L62.7148 46.5621L77.0384 66.1588L125.421 132.308Z" fill="#C4C4C4"/>
<path d="M62.7148 46.5621L48.3825 66.1588L0 0H28.6603L62.7148 46.5621Z" fill="#C4C4C4"/>
<path d="M125.421 0L77.0383 66.1588L62.7148 46.5621L96.765 0H125.421Z" fill="#C4C4C4"/>
<path d="M168.992 132.773H140.336L106.286 86.2155L72.2311 132.773H43.5708L91.9533 66.6235L106.286 47.0269L120.609 66.6235L168.992 132.773Z" fill="#C4C4C4"/>
</g>
</svg>
